<svg xmlns="http://www.w3.org/2000/svg">
	<symbol id="logo" viewBox="0 0 16 16">
		<path d="M14.5411 0.156924H12.5364C11.9178 0.156924 11.4163 0.648347 11.4163 1.25459V3.21923C11.4163 3.82547 11.9178 4.31692 12.5364 4.31692H14.5411C15.1597 4.31692 15.6612 3.82547 15.6612 3.21923V1.25459C15.6612 0.648347 15.1597 0.156924 14.5411 0.156924Z"/>
		<path d="M3.36519 11.52H1.20624C0.540049 11.52 0 12.0115 0 12.6177V14.5823C0 15.1886 0.540049 15.68 1.20624 15.68H3.36519C4.03138 15.68 4.57143 15.1886 4.57143 14.5823V12.6177C4.57143 12.0115 4.03138 11.52 3.36519 11.52Z"/>
		<path d="M3.1248 5.79091H1.12007C0.501486 5.79091 0 6.28233 0 6.88857V8.85321C0 9.45945 0.501599 9.95091 1.12018 9.95091H3.1248C3.74341 9.95091 4.2449 9.45945 4.2449 8.85321V6.88857C4.2449 6.28233 3.74341 5.79091 3.1248 5.79091Z"/>
		<path d="M8.88295 11.4891H6.87822C6.25964 11.4891 5.75815 11.9805 5.75815 12.5868L5.75804 14.5514C5.75804 15.1576 6.25975 15.6491 6.87833 15.6491H8.88295C9.50157 15.6491 10.0031 15.1576 10.0031 14.5514V12.5868C10.0031 11.9805 9.50157 11.4891 8.88295 11.4891Z"/>
		<path d="M3.1248 0.0431361H1.12007C0.501486 0.0431361 0 0.534559 0 1.1408V3.10544C0 3.71168 0.501599 4.20314 1.12018 4.20314H3.1248C3.74341 4.20314 4.2449 3.71168 4.2449 3.10544V1.1408C4.2449 0.534559 3.74341 0.0431361 3.1248 0.0431361Z"/>
		<path d="M9.03794 5.84874H7.03321C6.41463 5.84874 5.91314 6.34016 5.91314 6.9464V8.91104C5.91314 9.51728 6.41474 10.0087 7.03332 10.0087H9.03794C9.65655 10.0087 10.158 9.51728 10.158 8.91104V6.9464C10.158 6.34016 9.65655 5.84874 9.03794 5.84874Z"/>
		<path d="M14.6667 11.4891H12.6619C12.0434 11.4891 11.5419 11.9805 11.5419 12.5868V14.5514C11.5419 15.1576 12.0435 15.6491 12.662 15.6491H14.6667C15.2853 15.6491 15.7868 15.1576 15.7868 14.5514V12.5868C15.7868 11.9805 15.2853 11.4891 14.6667 11.4891Z"/>
		<path d="M8.7953 0.111854H6.79056C6.17198 0.111854 5.6705 0.603277 5.6705 1.20952V3.17416C5.6705 3.7804 6.1721 4.27185 6.79068 4.27185H8.7953C9.41391 4.27185 9.91539 3.78003 9.91539 3.17379V1.20952C9.91539 0.603277 9.41391 0.111854 8.7953 0.111854Z"/>
		<path d="M14.5219 5.96291H12.5171C11.8985 5.96291 11.3971 6.45433 11.3971 7.06057V9.02521C11.3971 9.63145 11.8987 10.1229 12.5172 10.1229H14.5219C15.1405 10.1229 15.642 9.63145 15.642 9.02521V7.06057C15.642 6.45433 15.1405 5.96291 14.5219 5.96291Z"/>
	</symbol>

	<symbol id="basket" viewBox="0 0 20 24">
		<path d="M18.1667 6.16659H14.6667V4.99992C14.6667 3.76224 14.175 2.57526 13.2998 1.70009C12.4247 0.824917 11.2377 0.333252 10 0.333252C8.76234 0.333252 7.57535 0.824917 6.70019 1.70009C5.82502 2.57526 5.33335 3.76224 5.33335 4.99992V6.16659H1.83335C1.52393 6.16659 1.22719 6.2895 1.0084 6.50829C0.789603 6.72709 0.666687 7.02383 0.666687 7.33325V20.1666C0.666687 21.0948 1.03544 21.9851 1.69181 22.6415C2.34819 23.2978 3.23843 23.6666 4.16669 23.6666H15.8333C16.7616 23.6666 17.6518 23.2978 18.3082 22.6415C18.9646 21.9851 19.3333 21.0948 19.3333 20.1666V7.33325C19.3333 7.02383 19.2104 6.72709 18.9916 6.50829C18.7728 6.2895 18.4761 6.16659 18.1667 6.16659ZM7.66668 4.99992C7.66668 4.38108 7.91252 3.78759 8.3501 3.35C8.78769 2.91242 9.38118 2.66659 10 2.66659C10.6189 2.66659 11.2123 2.91242 11.6499 3.35C12.0875 3.78759 12.3333 4.38108 12.3333 4.99992V6.16659H7.66668V4.99992ZM17 20.1666C17 20.476 16.8771 20.7728 16.6583 20.9915C16.4395 21.2103 16.1428 21.3333 15.8333 21.3333H4.16669C3.85727 21.3333 3.56052 21.2103 3.34173 20.9915C3.12294 20.7728 3.00002 20.476 3.00002 20.1666V8.49992H5.33335V9.66659C5.33335 9.97601 5.45627 10.2728 5.67506 10.4915C5.89385 10.7103 6.1906 10.8333 6.50002 10.8333C6.80944 10.8333 7.10618 10.7103 7.32497 10.4915C7.54377 10.2728 7.66668 9.97601 7.66668 9.66659V8.49992H12.3333V9.66659C12.3333 9.97601 12.4563 10.2728 12.6751 10.4915C12.8938 10.7103 13.1906 10.8333 13.5 10.8333C13.8094 10.8333 14.1062 10.7103 14.325 10.4915C14.5438 10.2728 14.6667 9.97601 14.6667 9.66659V8.49992H17V20.1666Z"/>
	</symbol>
</svg>


<svg width="20" height="24" viewBox="0 0 20 24" fill="none" xmlns="http://www.w3.org/2000/svg">

</svg>
