<svg xmlns="http://www.w3.org/2000/svg">
	<symbol id="logo" viewBox="0 0 16 16">
		<path d="M14.5411 0.156924H12.5364C11.9178 0.156924 11.4163 0.648347 11.4163 1.25459V3.21923C11.4163 3.82547 11.9178 4.31692 12.5364 4.31692H14.5411C15.1597 4.31692 15.6612 3.82547 15.6612 3.21923V1.25459C15.6612 0.648347 15.1597 0.156924 14.5411 0.156924Z"/>
		<path d="M3.36519 11.52H1.20624C0.540049 11.52 0 12.0115 0 12.6177V14.5823C0 15.1886 0.540049 15.68 1.20624 15.68H3.36519C4.03138 15.68 4.57143 15.1886 4.57143 14.5823V12.6177C4.57143 12.0115 4.03138 11.52 3.36519 11.52Z"/>
		<path d="M3.1248 5.79091H1.12007C0.501486 5.79091 0 6.28233 0 6.88857V8.85321C0 9.45945 0.501599 9.95091 1.12018 9.95091H3.1248C3.74341 9.95091 4.2449 9.45945 4.2449 8.85321V6.88857C4.2449 6.28233 3.74341 5.79091 3.1248 5.79091Z"/>
		<path d="M8.88295 11.4891H6.87822C6.25964 11.4891 5.75815 11.9805 5.75815 12.5868L5.75804 14.5514C5.75804 15.1576 6.25975 15.6491 6.87833 15.6491H8.88295C9.50157 15.6491 10.0031 15.1576 10.0031 14.5514V12.5868C10.0031 11.9805 9.50157 11.4891 8.88295 11.4891Z"/>
		<path d="M3.1248 0.0431361H1.12007C0.501486 0.0431361 0 0.534559 0 1.1408V3.10544C0 3.71168 0.501599 4.20314 1.12018 4.20314H3.1248C3.74341 4.20314 4.2449 3.71168 4.2449 3.10544V1.1408C4.2449 0.534559 3.74341 0.0431361 3.1248 0.0431361Z"/>
		<path d="M9.03794 5.84874H7.03321C6.41463 5.84874 5.91314 6.34016 5.91314 6.9464V8.91104C5.91314 9.51728 6.41474 10.0087 7.03332 10.0087H9.03794C9.65655 10.0087 10.158 9.51728 10.158 8.91104V6.9464C10.158 6.34016 9.65655 5.84874 9.03794 5.84874Z"/>
		<path d="M14.6667 11.4891H12.6619C12.0434 11.4891 11.5419 11.9805 11.5419 12.5868V14.5514C11.5419 15.1576 12.0435 15.6491 12.662 15.6491H14.6667C15.2853 15.6491 15.7868 15.1576 15.7868 14.5514V12.5868C15.7868 11.9805 15.2853 11.4891 14.6667 11.4891Z"/>
		<path d="M8.7953 0.111854H6.79056C6.17198 0.111854 5.6705 0.603277 5.6705 1.20952V3.17416C5.6705 3.7804 6.1721 4.27185 6.79068 4.27185H8.7953C9.41391 4.27185 9.91539 3.78003 9.91539 3.17379V1.20952C9.91539 0.603277 9.41391 0.111854 8.7953 0.111854Z"/>
		<path d="M14.5219 5.96291H12.5171C11.8985 5.96291 11.3971 6.45433 11.3971 7.06057V9.02521C11.3971 9.63145 11.8987 10.1229 12.5172 10.1229H14.5219C15.1405 10.1229 15.642 9.63145 15.642 9.02521V7.06057C15.642 6.45433 15.1405 5.96291 14.5219 5.96291Z"/>
	</symbol>

	<symbol id="basket" viewBox="0 0 20 24">
		<path d="M18.1667 6.16659H14.6667V4.99992C14.6667 3.76224 14.175 2.57526 13.2998 1.70009C12.4247 0.824917 11.2377 0.333252 10 0.333252C8.76234 0.333252 7.57535 0.824917 6.70019 1.70009C5.82502 2.57526 5.33335 3.76224 5.33335 4.99992V6.16659H1.83335C1.52393 6.16659 1.22719 6.2895 1.0084 6.50829C0.789603 6.72709 0.666687 7.02383 0.666687 7.33325V20.1666C0.666687 21.0948 1.03544 21.9851 1.69181 22.6415C2.34819 23.2978 3.23843 23.6666 4.16669 23.6666H15.8333C16.7616 23.6666 17.6518 23.2978 18.3082 22.6415C18.9646 21.9851 19.3333 21.0948 19.3333 20.1666V7.33325C19.3333 7.02383 19.2104 6.72709 18.9916 6.50829C18.7728 6.2895 18.4761 6.16659 18.1667 6.16659ZM7.66668 4.99992C7.66668 4.38108 7.91252 3.78759 8.3501 3.35C8.78769 2.91242 9.38118 2.66659 10 2.66659C10.6189 2.66659 11.2123 2.91242 11.6499 3.35C12.0875 3.78759 12.3333 4.38108 12.3333 4.99992V6.16659H7.66668V4.99992ZM17 20.1666C17 20.476 16.8771 20.7728 16.6583 20.9915C16.4395 21.2103 16.1428 21.3333 15.8333 21.3333H4.16669C3.85727 21.3333 3.56052 21.2103 3.34173 20.9915C3.12294 20.7728 3.00002 20.476 3.00002 20.1666V8.49992H5.33335V9.66659C5.33335 9.97601 5.45627 10.2728 5.67506 10.4915C5.89385 10.7103 6.1906 10.8333 6.50002 10.8333C6.80944 10.8333 7.10618 10.7103 7.32497 10.4915C7.54377 10.2728 7.66668 9.97601 7.66668 9.66659V8.49992H12.3333V9.66659C12.3333 9.97601 12.4563 10.2728 12.6751 10.4915C12.8938 10.7103 13.1906 10.8333 13.5 10.8333C13.8094 10.8333 14.1062 10.7103 14.325 10.4915C14.5438 10.2728 14.6667 9.97601 14.6667 9.66659V8.49992H17V20.1666Z"/>
	</symbol>

	<symbol id="youtube" 	viewBox="0 0 44 44" >
		<rect x="0.5" y="0.5" width="43" height="43" rx="9.5" stroke="#AE1332"/>
		<g opacity="0.8">
		<path fill-rule="evenodd" clip-rule="evenodd" d="M29.21 13.2499C28.02 13.1799 25.57 13.1099 21.86 13.1099H21.37C17.8 13.1099 15.4201 13.1799 14.2301 13.3199C12.6201 13.4599 11.5 13.8799 10.87 14.4399C10.31 14.9299 9.89005 15.8399 9.75005 17.0299C9.68005 17.7999 9.61005 19.4099 9.61005 21.8599V22.2099C9.61005 24.5199 9.68004 26.1299 9.82004 26.8999C10.03 28.0199 10.3801 28.8599 11.0801 29.3499C11.7801 29.9099 12.9701 30.2599 14.6501 30.3999C15.8401 30.4699 18.2901 30.5399 22.0001 30.5399H22.4901C26.0601 30.5399 28.4401 30.4699 29.6301 30.3299C31.2401 30.1899 32.3601 29.7699 32.9901 29.2099C33.5501 28.7199 33.97 27.8099 34.11 26.6199C34.18 25.8499 34.2501 24.2399 34.2501 21.7899V21.4399C34.2501 19.1299 34.1801 17.5199 34.0401 16.7499C33.8301 15.6299 33.4801 14.7899 32.7801 14.2999C32.0801 13.7399 30.89 13.3899 29.21 13.2499ZM26.4801 21.8599L18.7801 26.4799V17.2399L26.4801 21.8599Z" fill="#AE1332"/>
		</g>
	</symbol>

	<symbol id="instagram" viewBox="0 0 44 44">
		<rect x="0.5" y="0.5" width="43" height="43" rx="9.5" stroke="#AE1332"/>
		<g opacity="0.8">
		<path d="M33.1279 17.4115C33.1142 16.4715 32.9401 15.5388 32.6067 14.6596C32.0233 13.1583 30.8354 11.9711 29.3315 11.3899C28.4621 11.0633 27.5428 10.8882 26.6124 10.8683C25.4158 10.815 25.0364 10.8 21.9988 10.8C18.9612 10.8 18.5719 10.8 17.384 10.8683C16.4548 10.8882 15.5355 11.0633 14.6661 11.3899C13.1622 11.9711 11.973 13.1583 11.3909 14.6596C11.0638 15.5277 10.8871 16.4454 10.8697 17.373C10.8162 18.5689 10.8 18.9477 10.8 21.9802C10.8 25.0127 10.8 25.4002 10.8697 26.5873C10.8884 27.5162 11.0638 28.4327 11.3909 29.3032C11.9743 30.8033 13.1622 31.9905 14.6673 32.5717C15.5331 32.9095 16.4523 33.1007 17.3852 33.1305C18.5831 33.1839 18.9625 33.2001 22.0001 33.2001C25.0376 33.2001 25.427 33.2001 26.6149 33.1305C27.5441 33.1119 28.4633 32.9368 29.334 32.6102C30.8379 32.0278 32.0258 30.8406 32.6092 29.3405C32.9363 28.4712 33.1117 27.5547 33.1304 26.6246C33.1839 25.43 33.2001 25.0512 33.2001 22.0174C33.1976 18.9849 33.1976 18.5999 33.1279 17.4115ZM21.9913 27.7149C18.8144 27.7149 16.2408 25.1456 16.2408 21.974C16.2408 18.8024 18.8144 16.233 21.9913 16.233C25.1658 16.233 27.7419 18.8024 27.7419 21.974C27.7419 25.1456 25.1658 27.7149 21.9913 27.7149ZM27.9707 17.3594C27.2281 17.3594 26.6298 16.7608 26.6298 16.0207C26.6298 15.2805 27.2281 14.682 27.9707 14.682C28.7108 14.682 29.3104 15.2805 29.3104 16.0207C29.3104 16.7608 28.7108 17.3594 27.9707 17.3594Z" fill="#AE1332"/>
		<path d="M21.9931 25.4789C23.9281 25.4789 25.4966 23.9104 25.4966 21.9754C25.4966 20.0405 23.9281 18.4719 21.9931 18.4719C20.0582 18.4719 18.4896 20.0405 18.4896 21.9754C18.4896 23.9104 20.0582 25.4789 21.9931 25.4789Z" fill="#AE1332"/>
		</g>
	</symbol>

	<symbol id="facebook" viewBox="0 0 44 44">
		<rect x="0.5" y="0.5" width="43" height="43" rx="9.5" stroke="#AE1332"/>
		<g opacity="0.8">
		<path d="M25.08 12.0602C25.29 12.0602 25.5 12.0602 25.92 12.0602V15.2102C25.71 15.2102 25.29 15.2102 24.87 15.2102C24.45 15.2102 24.03 15.2102 23.82 15.4202C23.61 15.6302 23.61 15.8402 23.61 16.3302C23.61 16.7502 23.61 17.0302 23.61 17.4502H25.92V20.1102H23.61V31.6602H20.04V20.0402H18.15V17.3802H20.04V16.4702C20.04 14.9302 20.25 13.8102 20.67 13.3202C21.3 12.4102 22.56 11.9902 24.45 11.9902C24.66 12.0602 24.87 12.0602 25.08 12.0602Z" fill="#AE1332"/>
		</g>
	</symbol>
</svg>
